<svg width="52" height="51" viewBox="0 0 52 51" fill="none" xmlns="http://www.w3.org/2000/svg">
<rect x="0.5" width="51" height="51" rx="8.69318" fill="url(#paint0_linear_869_3)"/>
<path d="M20 29V25.5H22V29C22 29.5523 22.4477 30 23 30H27V32H23C21.3431 32 20 30.6569 20 29Z" fill="white"/>
<path d="M21 24V26H19.5V24H21ZM23.5 24V26H21V24H23.5ZM24.5 23V19C24.5 18.4477 24.0523 18 23.5 18H19.5C18.9477 18 18.5 18.4477 18.5 19V23C18.5 23.5523 18.9477 24 19.5 24V26L19.3457 25.9961C17.8117 25.9184 16.5816 24.6883 16.5039 23.1543L16.5 23V19C16.5 17.3431 17.8431 16 19.5 16H23.5L23.6543 16.0039C25.2394 16.0842 26.5 17.3949 26.5 19V23L26.4961 23.1543C26.4184 24.6883 25.1883 25.9184 23.6543 25.9961L23.5 26V24C24.0523 24 24.5 23.5523 24.5 23Z" fill="white"/>
<path d="M32.5 34V36H28.5V34H32.5ZM33.5 33V29C33.5 28.4477 33.0523 28 32.5 28H28.5C27.9477 28 27.5 28.4477 27.5 29V33C27.5 33.5523 27.9477 34 28.5 34V36C26.8949 36 25.5842 34.7394 25.5039 33.1543L25.5 33V29C25.5 27.3431 26.8431 26 28.5 26H32.5L32.6543 26.0039C34.2394 26.0842 35.5 27.3949 35.5 29V33L35.4961 33.1543C35.4184 34.6883 34.1883 35.9184 32.6543 35.9961L32.5 36V34C33.0523 34 33.5 33.5523 33.5 33Z" fill="white"/>
<defs>
<linearGradient id="paint0_linear_869_3" x1="-25" y1="-25.5" x2="58.1648" y2="57.6648" gradientUnits="userSpaceOnUse">
<stop stop-color="#5E55E1"/>
<stop offset="1" stop-color="#9558ED"/>
</linearGradient>
</defs>
</svg>
